<svg width="28" height="28" viewBox="0 0 28 28" fill="none" xmlns="http://www.w3.org/2000/svg">
<path d="M4.66663 4.66666H11.6666V11.6667H4.66663V4.66666ZM16.3333 4.66666H23.3333V11.6667H16.3333V4.66666ZM4.66663 16.3333H11.6666V23.3333H4.66663V16.3333ZM16.3333 19.8333C16.3333 20.7616 16.702 21.6518 17.3584 22.3082C18.0148 22.9646 18.905 23.3333 19.8333 23.3333C20.7615 23.3333 21.6518 22.9646 22.3082 22.3082C22.9645 21.6518 23.3333 20.7616 23.3333 19.8333C23.3333 18.9051 22.9645 18.0148 22.3082 17.3584C21.6518 16.7021 20.7615 16.3333 19.8333 16.3333C18.905 16.3333 18.0148 16.7021 17.3584 17.3584C16.702 18.0148 16.3333 18.9051 16.3333 19.8333Z" stroke="#737373" stroke-width="1.5" stroke-linecap="round" stroke-linejoin="round"/>
</svg>
