<svg width="24" height="24" viewBox="0 0 24 24" fill="none" xmlns="http://www.w3.org/2000/svg">
<path d="M19.7079 9.292C19.615 9.19887 19.5047 9.12498 19.3832 9.07457C19.2617 9.02416 19.1315 8.99821 18.9999 8.99821C18.8684 8.99821 18.7381 9.02416 18.6167 9.07457C18.4952 9.12498 18.3848 9.19887 18.2919 9.292L11.9999 15.586L5.70792 9.292C5.61495 9.19902 5.50457 9.12527 5.38309 9.07495C5.26161 9.02463 5.13141 8.99873 4.99992 8.99873C4.86843 8.99873 4.73823 9.02463 4.61675 9.07495C4.49528 9.12527 4.3849 9.19902 4.29192 9.292C4.19895 9.38497 4.12519 9.49535 4.07487 9.61683C4.02456 9.73831 3.99866 9.86851 3.99866 10C3.99866 10.1315 4.02456 10.2617 4.07487 10.3832C4.12519 10.5046 4.19895 10.615 4.29192 10.708L11.2919 17.708C11.3848 17.8011 11.4952 17.875 11.6167 17.9254C11.7381 17.9758 11.8684 18.0018 11.9999 18.0018C12.1315 18.0018 12.2617 17.9758 12.3832 17.9254C12.5047 17.875 12.615 17.8011 12.7079 17.708L19.7079 10.708C19.801 10.6151 19.8749 10.5048 19.9253 10.3833C19.9758 10.2618 20.0017 10.1315 20.0017 10C20.0017 9.86846 19.9758 9.73822 19.9253 9.61673C19.8749 9.49524 19.801 9.38489 19.7079 9.292Z" fill="#808080"/>
</svg>
