<svg width="22" height="23" viewBox="0 0 22 23" fill="none" xmlns="http://www.w3.org/2000/svg">
<path d="M11.005 21.4574C16.5279 21.4574 21.005 16.9802 21.005 11.4574C21.005 5.93455 16.5279 1.4574 11.005 1.4574C5.48216 1.4574 1.005 5.93455 1.005 11.4574C1.005 16.9802 5.48216 21.4574 11.005 21.4574Z" stroke="#A6A6A6" stroke-width="2" stroke-linecap="round" stroke-linejoin="round"/>
<path d="M14.005 8.8114C13.4676 8.2021 12.7574 7.77091 11.9688 7.57519C11.1803 7.37948 10.3509 7.42852 9.59088 7.7158C8.83091 8.00308 8.17643 8.51497 7.71454 9.18336C7.25265 9.85175 7.00525 10.6449 7.00525 11.4574C7.00525 12.2699 7.25265 13.0631 7.71454 13.7314C8.17643 14.3998 8.83091 14.9117 9.59088 15.199C10.3509 15.4863 11.1803 15.5353 11.9688 15.3396C12.7574 15.1439 13.4676 14.7127 14.005 14.1034" stroke="#A6A6A6" stroke-width="2" stroke-linecap="round" stroke-linejoin="round"/>
</svg>
