<svg width="28" height="28" viewBox="0 0 28 28" fill="none" xmlns="http://www.w3.org/2000/svg">
<path d="M13.9417 21C14.35 21 14.6954 20.8589 14.9777 20.5765C15.26 20.2942 15.4008 19.9493 15.4 19.5417C15.4 19.1334 15.2593 18.788 14.9777 18.5057C14.6962 18.2234 14.3508 18.0826 13.9417 18.0834C13.5334 18.0834 13.1884 18.2245 12.9069 18.5069C12.6253 18.7892 12.4842 19.1342 12.4834 19.5417C12.4834 19.95 12.6245 20.2954 12.9069 20.5777C13.1892 20.86 13.5342 21.0008 13.9417 21ZM12.8917 16.5084H15.05C15.05 15.8667 15.1232 15.3612 15.2694 14.9917C15.4156 14.6223 15.8286 14.1167 16.5084 13.475C17.0139 12.9695 17.4125 12.488 17.7042 12.0307C17.9959 11.5734 18.1417 11.0243 18.1417 10.3834C18.1417 9.29448 17.7431 8.45837 16.9459 7.87504C16.1487 7.29171 15.2056 7.00004 14.1167 7.00004C13.0084 7.00004 12.1089 7.29171 11.4182 7.87504C10.7275 8.45837 10.2465 9.15837 9.97504 9.97504L11.9 10.7334C11.9973 10.3834 12.2162 10.0042 12.5569 9.59587C12.8975 9.18754 13.4175 8.98337 14.1167 8.98337C14.7389 8.98337 15.2056 9.15371 15.5167 9.49437C15.8278 9.83504 15.9834 10.2092 15.9834 10.6167C15.9834 11.0056 15.8667 11.3704 15.6334 11.711C15.4 12.0517 15.1084 12.3675 14.7584 12.6584C13.9028 13.4167 13.3778 13.9903 13.1834 14.3792C12.9889 14.7681 12.8917 15.4778 12.8917 16.5084ZM14 25.6667C12.3862 25.6667 10.8695 25.3603 9.45004 24.7474C8.0306 24.1345 6.79587 23.3034 5.74587 22.2542C4.69587 21.2042 3.86482 19.9695 3.25271 18.55C2.6406 17.1306 2.33415 15.6139 2.33337 14C2.33337 12.3862 2.63982 10.8695 3.25271 9.45004C3.8656 8.0306 4.69665 6.79587 5.74587 5.74587C6.79587 4.69587 8.0306 3.86482 9.45004 3.25271C10.8695 2.6406 12.3862 2.33415 14 2.33337C15.6139 2.33337 17.1306 2.63982 18.55 3.25271C19.9695 3.8656 21.2042 4.69665 22.2542 5.74587C23.3042 6.79587 24.1357 8.0306 24.7485 9.45004C25.3614 10.8695 25.6675 12.3862 25.6667 14C25.6667 15.6139 25.3603 17.1306 24.7474 18.55C24.1345 19.9695 23.3034 21.2042 22.2542 22.2542C21.2042 23.3042 19.9695 24.1357 18.55 24.7485C17.1306 25.3614 15.6139 25.6675 14 25.6667ZM14 23.3334C16.6056 23.3334 18.8125 22.4292 20.6209 20.6209C22.4292 18.8125 23.3334 16.6056 23.3334 14C23.3334 11.3945 22.4292 9.18754 20.6209 7.37921C18.8125 5.57087 16.6056 4.66671 14 4.66671C11.3945 4.66671 9.18754 5.57087 7.37921 7.37921C5.57087 9.18754 4.66671 11.3945 4.66671 14C4.66671 16.6056 5.57087 18.8125 7.37921 20.6209C9.18754 22.4292 11.3945 23.3334 14 23.3334Z" fill="#737373"/>
</svg>
