<svg width="28" height="28" viewBox="0 0 28 28" fill="none" xmlns="http://www.w3.org/2000/svg">
<path d="M14 4.66671V15.75M17.5 7.00004L14 3.50004L10.5 7.00004M8.16663 12.8334H6.99996C6.38112 12.8334 5.78763 13.0792 5.35004 13.5168C4.91246 13.9544 4.66663 14.5479 4.66663 15.1667L4.66663 21C4.66663 21.6189 4.91246 22.2124 5.35004 22.65C5.78763 23.0875 6.38112 23.3334 6.99996 23.3334L21 23.3334C21.6188 23.3334 22.2123 23.0875 22.6499 22.65C23.0875 22.2124 23.3333 21.6189 23.3333 21V15.1667C23.3333 14.5479 23.0875 13.9544 22.6499 13.5168C22.2123 13.0792 21.6188 12.8334 21 12.8334H19.8333" stroke="#737373" stroke-width="2" stroke-linecap="round" stroke-linejoin="round"/>
</svg>
