<svg width="14" height="18" viewBox="0 0 14 18" fill="none" xmlns="http://www.w3.org/2000/svg">
<path d="M3.25 3.75C3.25 2.75544 3.64509 1.80161 4.34835 1.09835C5.05161 0.395088 6.00544 0 7 0C7.99456 0 8.94839 0.395088 9.65165 1.09835C10.3549 1.80161 10.75 2.75544 10.75 3.75V9C10.75 9.99456 10.3549 10.9484 9.65165 11.6517C8.94839 12.3549 7.99456 12.75 7 12.75C6.00544 12.75 5.05161 12.3549 4.34835 11.6517C3.64509 10.9484 3.25 9.99456 3.25 9V3.75ZM7 1.5C6.40326 1.5 5.83097 1.73705 5.40901 2.15901C4.98705 2.58097 4.75 3.15326 4.75 3.75V9C4.75 9.59674 4.98705 10.169 5.40901 10.591C5.83097 11.0129 6.40326 11.25 7 11.25C7.59674 11.25 8.16903 11.0129 8.59099 10.591C9.01295 10.169 9.25 9.59674 9.25 9V3.75C9.25 3.15326 9.01295 2.58097 8.59099 2.15901C8.16903 1.73705 7.59674 1.5 7 1.5ZM1 8.25C1.19891 8.25 1.38968 8.32902 1.53033 8.46967C1.67098 8.61032 1.75 8.80109 1.75 9C1.75 10.3924 2.30312 11.7277 3.28769 12.7123C4.27226 13.6969 5.60761 14.25 7 14.25C8.39239 14.25 9.72774 13.6969 10.7123 12.7123C11.6969 11.7277 12.25 10.3924 12.25 9C12.25 8.80109 12.329 8.61032 12.4697 8.46967C12.6103 8.32902 12.8011 8.25 13 8.25C13.1989 8.25 13.3897 8.32902 13.5303 8.46967C13.671 8.61032 13.75 8.80109 13.75 9C13.7503 10.6606 13.1385 12.263 12.0316 13.5008C10.9247 14.7386 9.40029 15.525 7.75 15.7095V17.25C7.75 17.4489 7.67098 17.6397 7.53033 17.7803C7.38968 17.921 7.19891 18 7 18C6.80109 18 6.61032 17.921 6.46967 17.7803C6.32902 17.6397 6.25 17.4489 6.25 17.25V15.7095C4.59971 15.525 3.07534 14.7386 1.96842 13.5008C0.861486 12.263 0.249681 10.6606 0.25 9C0.25 8.80109 0.329018 8.61032 0.46967 8.46967C0.610322 8.32902 0.801088 8.25 1 8.25Z" fill="#999999"/>
</svg>
