<svg width="28" height="28" viewBox="0 0 28 28" fill="none" xmlns="http://www.w3.org/2000/svg">
<path d="M23.3334 22.1667V12.25C23.3334 12.0689 23.2912 11.8902 23.2102 11.7283C23.1292 11.5663 23.0116 11.4253 22.8667 11.3167L14.7 5.19167C14.4981 5.04021 14.2525 4.95833 14 4.95833C13.7476 4.95833 13.502 5.04021 13.3 5.19167L5.13335 11.3167C4.98846 11.4253 4.87085 11.5663 4.78986 11.7283C4.70886 11.8902 4.66669 12.0689 4.66669 12.25V22.1667C4.66669 22.4761 4.7896 22.7728 5.0084 22.9916C5.22719 23.2104 5.52393 23.3333 5.83335 23.3333H10.5C10.8094 23.3333 11.1062 23.2104 11.325 22.9916C11.5438 22.7728 11.6667 22.4761 11.6667 22.1667V18.6667C11.6667 18.3572 11.7896 18.0605 12.0084 17.8417C12.2272 17.6229 12.5239 17.5 12.8334 17.5H15.1667C15.4761 17.5 15.7729 17.6229 15.9916 17.8417C16.2104 18.0605 16.3334 18.3572 16.3334 18.6667V22.1667C16.3334 22.4761 16.4563 22.7728 16.6751 22.9916C16.8939 23.2104 17.1906 23.3333 17.5 23.3333H22.1667C22.4761 23.3333 22.7729 23.2104 22.9916 22.9916C23.2104 22.7728 23.3334 22.4761 23.3334 22.1667Z" stroke="#737373" stroke-width="2" stroke-linecap="round" stroke-linejoin="round"/>
</svg>
