<svg width="28" height="28" viewBox="0 0 28 28" fill="none" xmlns="http://www.w3.org/2000/svg">
<path d="M23.8027 2.625H17.0816C16.8726 2.62485 16.6721 2.70743 16.5238 2.85469L3.08706 16.2914C2.79285 16.5871 2.62769 16.9872 2.62769 17.4043C2.62769 17.8214 2.79285 18.2215 3.08706 18.5172L9.4855 24.9156C9.78116 25.2098 10.1813 25.375 10.5984 25.375C11.0155 25.375 11.4156 25.2098 11.7113 24.9156L25.1425 11.4844C25.2898 11.3361 25.3724 11.1355 25.3722 10.9266V4.2C25.3732 3.99335 25.3334 3.78853 25.2549 3.59735C25.1765 3.40616 25.061 3.23238 24.9151 3.08599C24.7692 2.93961 24.5958 2.82352 24.4049 2.74441C24.214 2.66529 24.0093 2.62471 23.8027 2.625Z" stroke="#737373" stroke-width="1.5" stroke-linecap="round" stroke-linejoin="round"/>
<path d="M21 8C20.8022 8 20.6089 7.94135 20.4444 7.83147C20.28 7.72159 20.1518 7.56541 20.0761 7.38268C20.0004 7.19996 19.9806 6.99889 20.0192 6.80491C20.0578 6.61093 20.153 6.43275 20.2929 6.29289C20.4327 6.15304 20.6109 6.0578 20.8049 6.01922C20.9989 5.98063 21.2 6.00043 21.3827 6.07612C21.5654 6.15181 21.7216 6.27998 21.8315 6.44443C21.9414 6.60888 22 6.80222 22 7C22 7.26522 21.8946 7.51957 21.7071 7.70711C21.5196 7.89464 21.2652 8 21 8Z" stroke="#737373" stroke-width="1.5"/>
</svg>
