<svg width="28" height="28" viewBox="0 0 28 28" fill="none" xmlns="http://www.w3.org/2000/svg">
<path d="M23.625 14.665V13.3262L25.305 11.8562C25.6147 11.5833 25.8179 11.2096 25.8787 10.8013C25.9396 10.393 25.8541 9.97638 25.6375 9.62499L23.5725 6.12499C23.419 5.85922 23.1984 5.63847 22.9327 5.48489C22.667 5.33131 22.3656 5.2503 22.0587 5.24999C21.8685 5.24853 21.6794 5.27809 21.4987 5.33749L19.3725 6.05499C19.0054 5.81105 18.6224 5.59181 18.2262 5.39874L17.78 3.19374C17.7 2.79089 17.4808 2.42902 17.1609 2.17148C16.8409 1.91393 16.4406 1.77712 16.03 1.78499H11.935C11.5243 1.77712 11.124 1.91393 10.8041 2.17148C10.4841 2.42902 10.265 2.79089 10.185 3.19374L9.73873 5.39874C9.33967 5.59176 8.95383 5.81099 8.58373 6.05499L6.50123 5.30249C6.31861 5.25491 6.1295 5.23718 5.94123 5.24999C5.63434 5.2503 5.33294 5.33131 5.06724 5.48489C4.80155 5.63847 4.58092 5.85922 4.42748 6.12499L2.36248 9.62499C2.15824 9.97585 2.08235 10.3868 2.14779 10.7875C2.21324 11.1882 2.41596 11.5536 2.72123 11.8212L4.37498 13.335V14.6737L2.72123 16.1437C2.40734 16.4132 2.19908 16.7852 2.1334 17.1937C2.06773 17.6022 2.14889 18.0207 2.36248 18.375L4.42748 21.875C4.58092 22.1408 4.80155 22.3615 5.06724 22.5151C5.33294 22.6687 5.63434 22.7497 5.94123 22.75C6.13141 22.7514 6.32056 22.7219 6.50123 22.6625L8.62748 21.945C8.99457 22.1889 9.3775 22.4082 9.77373 22.6012L10.22 24.8062C10.3 25.2091 10.5191 25.571 10.8391 25.8285C11.159 26.086 11.5593 26.2229 11.97 26.215H16.1C16.5106 26.2229 16.9109 26.086 17.2309 25.8285C17.5508 25.571 17.77 25.2091 17.85 24.8062L18.2962 22.6012C18.6953 22.4082 19.0811 22.189 19.4512 21.945L21.5687 22.6625C21.7494 22.7219 21.9385 22.7514 22.1287 22.75C22.4356 22.7497 22.737 22.6687 23.0027 22.5151C23.2684 22.3615 23.489 22.1408 23.6425 21.875L25.6375 18.375C25.8417 18.0241 25.9176 17.6132 25.8522 17.2125C25.7867 16.8118 25.584 16.4464 25.2787 16.1787L23.625 14.665ZM22.0587 21L19.0575 19.985C18.3549 20.5801 17.5519 21.0453 16.6862 21.3587L16.065 24.5H11.935L11.3137 21.3937C10.4548 21.0714 9.65623 20.607 8.95123 20.02L5.94123 21L3.87623 17.5L6.25623 15.4C6.09444 14.4942 6.09444 13.567 6.25623 12.6612L3.87623 10.5L5.94123 6.99999L8.94248 8.01499C9.64505 7.4199 10.448 6.95471 11.3137 6.64124L11.935 3.49999H16.065L16.6862 6.60624C17.5451 6.92861 18.3437 7.39299 19.0487 7.97999L22.0587 6.99999L24.1237 10.5L21.7437 12.6C21.9055 13.5057 21.9055 14.433 21.7437 15.3387L24.1237 17.5L22.0587 21Z" fill="#737373"/>
<path d="M14 19.25C12.9616 19.25 11.9466 18.9421 11.0833 18.3652C10.2199 17.7883 9.54699 16.9684 9.14963 16.0091C8.75227 15.0498 8.64831 13.9942 8.85088 12.9758C9.05345 11.9574 9.55347 11.0219 10.2877 10.2877C11.0219 9.55347 11.9574 9.05345 12.9758 8.85088C13.9942 8.64831 15.0498 8.75227 16.0091 9.14963C16.9684 9.54699 17.7883 10.2199 18.3652 11.0833C18.9421 11.9466 19.25 12.9616 19.25 14C19.257 14.6914 19.126 15.3772 18.8647 16.0174C18.6033 16.6575 18.2169 17.239 17.728 17.728C17.239 18.2169 16.6575 18.6033 16.0174 18.8647C15.3772 19.126 14.6914 19.257 14 19.25ZM14 10.5C13.5374 10.4892 13.0775 10.5724 12.648 10.7445C12.2185 10.9165 11.8283 11.174 11.5011 11.5011C11.174 11.8283 10.9165 12.2185 10.7445 12.648C10.5724 13.0775 10.4892 13.5374 10.5 14C10.4892 14.4626 10.5724 14.9225 10.7445 15.352C10.9165 15.7815 11.174 16.1717 11.5011 16.4989C11.8283 16.826 12.2185 17.0835 12.648 17.2555C13.0775 17.4276 13.5374 17.5108 14 17.5C14.4626 17.5108 14.9225 17.4276 15.352 17.2555C15.7815 17.0835 16.1717 16.826 16.4989 16.4989C16.826 16.1717 17.0835 15.7815 17.2555 15.352C17.4276 14.9225 17.5108 14.4626 17.5 14C17.5108 13.5374 17.4276 13.0775 17.2555 12.648C17.0835 12.2185 16.826 11.8283 16.4989 11.5011C16.1717 11.174 15.7815 10.9165 15.352 10.7445C14.9225 10.5724 14.4626 10.4892 14 10.5Z" fill="#737373"/>
</svg>
