<svg width="69" height="56" viewBox="0 0 69 56" fill="none" xmlns="http://www.w3.org/2000/svg">
<path d="M34.2727 28.2727L8.70527 18.0594L10.2818 55.6909H3.42727L5.07236 16.5857L0 14.5636L34.2727 0.854523L68.5454 14.5636L34.2727 28.2727ZM34.2727 11.1363C32.3877 11.1363 30.8455 11.8903 30.8455 12.85C30.8455 13.8096 32.3877 14.5636 34.2727 14.5636C36.1577 14.5636 37.7 13.8096 37.7 12.85C37.7 11.8903 36.1577 11.1363 34.2727 11.1363ZM34.2727 31.7L53.3626 24.0572C55.796 27.2788 57.4754 31.1516 58.0237 35.3672C56.9955 35.2301 55.9331 35.1272 54.8364 35.1272C46.0968 35.1272 38.454 39.8226 34.2727 46.8142C32.1504 43.2525 29.1395 40.3028 25.5348 38.2542C21.9301 36.2055 17.8552 35.1281 13.7091 35.1272C12.6124 35.1272 11.5499 35.2301 10.5217 35.3672C11.0701 31.1516 12.7495 27.2788 15.1828 24.0572L34.2727 31.7Z" fill="#0000FF"/>
</svg>
