<svg width="28" height="27" viewBox="0 0 28 27" fill="none" xmlns="http://www.w3.org/2000/svg">
<path d="M26.8978 23.7378C26.0406 22.9737 25.2902 22.0976 24.6667 21.1333C23.986 19.8023 23.578 18.3487 23.4667 16.8578V12.4667C23.4631 11.9333 23.4155 11.4011 23.3244 10.8756C22.6248 10.7357 21.9524 10.4836 21.3333 10.1289C21.5693 10.8888 21.6892 11.6799 21.6889 12.4756V16.8667C21.7978 18.6854 22.2981 20.4591 23.1556 22.0667C23.7692 23.0391 24.4974 23.9344 25.3244 24.7333H2.56C3.38703 23.9344 4.1152 23.0391 4.72889 22.0667C5.58632 20.4591 6.08661 18.6854 6.19556 16.8667V12.4667C6.19088 11.438 6.38916 10.4184 6.77906 9.46643C7.16896 8.51445 7.74281 7.64872 8.46775 6.91882C9.19269 6.18893 10.0545 5.60919 11.0038 5.21282C11.9531 4.81645 12.9713 4.61123 14 4.6089C15.5056 4.61011 16.9773 5.05535 18.2311 5.8889C18.0929 5.38133 18.0153 4.85917 18 4.33334V3.77334C17.0719 3.31678 16.0748 3.01645 15.0489 2.88446V1.76446C15.0489 1.44973 14.9239 1.1479 14.7013 0.925356C14.4788 0.702813 14.1769 0.577789 13.8622 0.577789C13.5475 0.577789 13.2457 0.702813 13.0231 0.925356C12.8006 1.1479 12.6756 1.44973 12.6756 1.76446V2.9289C10.3784 3.25295 8.27607 4.39712 6.75664 6.15017C5.23722 7.90323 4.40331 10.1468 4.40889 12.4667V16.8578C4.29756 18.3487 3.88958 19.8023 3.20889 21.1333C2.59634 22.0954 1.85795 22.9713 1.01333 23.7378C0.918517 23.8211 0.842526 23.9236 0.790415 24.0386C0.738305 24.1535 0.711271 24.2782 0.711111 24.4045V25.6133C0.711111 25.8491 0.804762 26.0752 0.971461 26.2419C1.13816 26.4086 1.36425 26.5022 1.6 26.5022H26.3111C26.5469 26.5022 26.773 26.4086 26.9397 26.2419C27.1063 26.0752 27.2 25.8491 27.2 25.6133V24.4045C27.1998 24.2782 27.1728 24.1535 27.1207 24.0386C27.0686 23.9236 26.9926 23.8211 26.8978 23.7378Z" fill="#B3B3B3"/>
</svg>
